<mxfile host="app.diagrams.net" agent="Mozilla/5.0 (Windows NT 10.0; Win64; x64) AppleWebKit/537.36 (KHTML, like Gecko) Chrome/129.0.0.0 Safari/537.36" version="24.7.17">
  <diagram name="Page-1" id="ixTYIEVBs55TyduUzOPu">
    <mxGraphModel dx="2097" dy="1876" grid="1" gridSize="10" guides="1" tooltips="1" connect="1" arrows="1" fold="1" page="1" pageScale="1" pageWidth="850" pageHeight="1100" math="0" shadow="0">
      <root>
        <mxCell id="0" />
        <mxCell id="1" parent="0" />
        <mxCell id="z7mrPWAKrII33vHrKD1a-16" value="" style="group" vertex="1" connectable="0" parent="1">
          <mxGeometry x="80" y="70" width="720" height="100" as="geometry" />
        </mxCell>
        <mxCell id="z7mrPWAKrII33vHrKD1a-1" value="" style="html=1;dashed=0;whiteSpace=wrap;shape=mxgraph.dfd.externalEntity" vertex="1" parent="z7mrPWAKrII33vHrKD1a-16">
          <mxGeometry width="100" height="100" as="geometry" />
        </mxCell>
        <mxCell id="z7mrPWAKrII33vHrKD1a-2" value="admin" style="autosize=1;part=1;resizable=0;strokeColor=inherit;fillColor=inherit;gradientColor=inherit;" vertex="1" parent="z7mrPWAKrII33vHrKD1a-1">
          <mxGeometry width="60" height="30" relative="1" as="geometry">
            <mxPoint x="-5" y="10" as="offset" />
          </mxGeometry>
        </mxCell>
        <mxCell id="z7mrPWAKrII33vHrKD1a-3" value="1.0" style="swimlane;html=1;startSize=20;fontStyle=0;collapsible=0;horizontal=1;swimlaneLine=1;strokeWidth=2;swimlaneFillColor=#ffffff;whiteSpace=wrap;" vertex="1" parent="z7mrPWAKrII33vHrKD1a-16">
          <mxGeometry x="265" width="220" height="100" as="geometry" />
        </mxCell>
        <mxCell id="z7mrPWAKrII33vHrKD1a-7" value="sanitize product details" style="text;html=1;align=center;verticalAlign=middle;whiteSpace=wrap;rounded=0;" vertex="1" parent="z7mrPWAKrII33vHrKD1a-3">
          <mxGeometry x="80" y="50" width="60" height="30" as="geometry" />
        </mxCell>
        <mxCell id="z7mrPWAKrII33vHrKD1a-4" value="product details" style="html=1;dashed=0;whiteSpace=wrap;shape=mxgraph.dfd.dataStoreID;align=left;spacingLeft=3;points=[[0,0],[0.5,0],[1,0],[0,0.5],[1,0.5],[0,1],[0.5,1],[1,1]];" vertex="1" parent="z7mrPWAKrII33vHrKD1a-16">
          <mxGeometry x="620" width="100" height="90" as="geometry" />
        </mxCell>
        <mxCell id="z7mrPWAKrII33vHrKD1a-6" value="" style="endArrow=classic;html=1;rounded=0;" edge="1" parent="z7mrPWAKrII33vHrKD1a-16">
          <mxGeometry width="50" height="50" relative="1" as="geometry">
            <mxPoint x="100" y="44.5" as="sourcePoint" />
            <mxPoint x="270" y="45" as="targetPoint" />
          </mxGeometry>
        </mxCell>
        <mxCell id="z7mrPWAKrII33vHrKD1a-8" value="product details" style="edgeLabel;html=1;align=center;verticalAlign=middle;resizable=0;points=[];" vertex="1" connectable="0" parent="z7mrPWAKrII33vHrKD1a-6">
          <mxGeometry x="-0.2941" y="1" relative="1" as="geometry">
            <mxPoint as="offset" />
          </mxGeometry>
        </mxCell>
        <mxCell id="z7mrPWAKrII33vHrKD1a-72" value="" style="endArrow=classic;html=1;rounded=0;" edge="1" parent="z7mrPWAKrII33vHrKD1a-16">
          <mxGeometry width="50" height="50" relative="1" as="geometry">
            <mxPoint x="270" y="70" as="sourcePoint" />
            <mxPoint x="100" y="70" as="targetPoint" />
          </mxGeometry>
        </mxCell>
        <mxCell id="z7mrPWAKrII33vHrKD1a-73" value="404 feedback" style="edgeLabel;html=1;align=center;verticalAlign=middle;resizable=0;points=[];" vertex="1" connectable="0" parent="z7mrPWAKrII33vHrKD1a-72">
          <mxGeometry x="-0.1765" y="3" relative="1" as="geometry">
            <mxPoint x="-1" as="offset" />
          </mxGeometry>
        </mxCell>
        <mxCell id="z7mrPWAKrII33vHrKD1a-19" value="2.0" style="swimlane;html=1;startSize=20;fontStyle=0;collapsible=0;horizontal=1;swimlaneLine=1;strokeWidth=2;swimlaneFillColor=#ffffff;whiteSpace=wrap;" vertex="1" parent="1">
          <mxGeometry x="315" y="310" width="220" height="100" as="geometry" />
        </mxCell>
        <mxCell id="z7mrPWAKrII33vHrKD1a-21" value="process product details" style="text;html=1;align=center;verticalAlign=middle;whiteSpace=wrap;rounded=0;" vertex="1" parent="z7mrPWAKrII33vHrKD1a-19">
          <mxGeometry x="75" y="35" width="60" height="30" as="geometry" />
        </mxCell>
        <mxCell id="z7mrPWAKrII33vHrKD1a-5" value="" style="endArrow=classic;html=1;rounded=0;exitX=1;exitY=0.5;exitDx=0;exitDy=0;entryX=0.5;entryY=0;entryDx=0;entryDy=0;" edge="1" parent="1" target="z7mrPWAKrII33vHrKD1a-19">
          <mxGeometry width="50" height="50" relative="1" as="geometry">
            <mxPoint x="424" y="170" as="sourcePoint" />
            <mxPoint x="424" y="270" as="targetPoint" />
          </mxGeometry>
        </mxCell>
        <mxCell id="z7mrPWAKrII33vHrKD1a-9" value="sanitized product details" style="edgeLabel;html=1;align=center;verticalAlign=middle;resizable=0;points=[];rotation=0;" vertex="1" connectable="0" parent="z7mrPWAKrII33vHrKD1a-5">
          <mxGeometry x="0.2296" relative="1" as="geometry">
            <mxPoint x="2" y="-11" as="offset" />
          </mxGeometry>
        </mxCell>
        <mxCell id="z7mrPWAKrII33vHrKD1a-22" value="" style="endArrow=classic;html=1;rounded=0;entryX=0;entryY=0.5;entryDx=0;entryDy=0;" edge="1" parent="1" target="z7mrPWAKrII33vHrKD1a-4">
          <mxGeometry width="50" height="50" relative="1" as="geometry">
            <mxPoint x="540" y="380" as="sourcePoint" />
            <mxPoint x="590" y="180" as="targetPoint" />
            <Array as="points">
              <mxPoint x="650" y="380" />
              <mxPoint x="650" y="115" />
            </Array>
          </mxGeometry>
        </mxCell>
        <mxCell id="z7mrPWAKrII33vHrKD1a-29" value="processed product details" style="edgeLabel;html=1;align=center;verticalAlign=middle;resizable=0;points=[];" vertex="1" connectable="0" parent="z7mrPWAKrII33vHrKD1a-22">
          <mxGeometry x="-0.0588" relative="1" as="geometry">
            <mxPoint as="offset" />
          </mxGeometry>
        </mxCell>
        <mxCell id="z7mrPWAKrII33vHrKD1a-10" value="" style="endArrow=classic;html=1;rounded=0;entryX=0;entryY=0;entryDx=55;entryDy=100;entryPerimeter=0;" edge="1" parent="1" target="z7mrPWAKrII33vHrKD1a-1">
          <mxGeometry width="50" height="50" relative="1" as="geometry">
            <mxPoint x="530" y="560" as="sourcePoint" />
            <mxPoint x="90" y="320" as="targetPoint" />
            <Array as="points">
              <mxPoint x="130" y="560" />
            </Array>
          </mxGeometry>
        </mxCell>
        <mxCell id="z7mrPWAKrII33vHrKD1a-13" value="201 feedback" style="edgeLabel;html=1;align=center;verticalAlign=middle;resizable=0;points=[];" vertex="1" connectable="0" parent="z7mrPWAKrII33vHrKD1a-10">
          <mxGeometry x="0.0222" y="3" relative="1" as="geometry">
            <mxPoint as="offset" />
          </mxGeometry>
        </mxCell>
        <mxCell id="z7mrPWAKrII33vHrKD1a-11" value="" style="endArrow=classic;html=1;rounded=0;entryX=0.945;entryY=-0.02;entryDx=0;entryDy=0;entryPerimeter=0;" edge="1" parent="1" target="z7mrPWAKrII33vHrKD1a-32">
          <mxGeometry width="50" height="50" relative="1" as="geometry">
            <mxPoint x="740" y="160" as="sourcePoint" />
            <mxPoint x="670" y="370" as="targetPoint" />
          </mxGeometry>
        </mxCell>
        <mxCell id="z7mrPWAKrII33vHrKD1a-34" value="feedback" style="edgeLabel;html=1;align=center;verticalAlign=middle;resizable=0;points=[];" vertex="1" connectable="0" parent="z7mrPWAKrII33vHrKD1a-11">
          <mxGeometry x="0.2425" y="2" relative="1" as="geometry">
            <mxPoint as="offset" />
          </mxGeometry>
        </mxCell>
        <mxCell id="z7mrPWAKrII33vHrKD1a-32" value="3.0" style="swimlane;html=1;startSize=20;fontStyle=0;collapsible=0;horizontal=1;swimlaneLine=1;strokeWidth=2;swimlaneFillColor=#ffffff;whiteSpace=wrap;" vertex="1" parent="1">
          <mxGeometry x="530" y="500" width="220" height="100" as="geometry" />
        </mxCell>
        <mxCell id="z7mrPWAKrII33vHrKD1a-33" value="process product feedback" style="text;html=1;align=center;verticalAlign=middle;whiteSpace=wrap;rounded=0;" vertex="1" parent="z7mrPWAKrII33vHrKD1a-32">
          <mxGeometry x="70" y="35" width="60" height="30" as="geometry" />
        </mxCell>
        <mxCell id="z7mrPWAKrII33vHrKD1a-66" value="" style="group" vertex="1" connectable="0" parent="1">
          <mxGeometry x="330" y="-40" width="210" height="109.5" as="geometry" />
        </mxCell>
        <mxCell id="z7mrPWAKrII33vHrKD1a-64" value="" style="html=1;verticalLabelPosition=bottom;align=center;labelBackgroundColor=#ffffff;verticalAlign=top;strokeWidth=2;strokeColor=#0080F0;shadow=0;dashed=0;shape=mxgraph.ios7.icons.message;" vertex="1" parent="z7mrPWAKrII33vHrKD1a-66">
          <mxGeometry width="210" height="109.5" as="geometry" />
        </mxCell>
        <mxCell id="z7mrPWAKrII33vHrKD1a-65" value="workflow 1.0&lt;div&gt;if data is missing columns on the sanitization process return 404 bad request to the admin&lt;/div&gt;&lt;div&gt;&lt;br&gt;&lt;/div&gt;" style="text;html=1;align=center;verticalAlign=middle;whiteSpace=wrap;rounded=0;" vertex="1" parent="z7mrPWAKrII33vHrKD1a-66">
          <mxGeometry y="30" width="210" height="30" as="geometry" />
        </mxCell>
        <mxCell id="z7mrPWAKrII33vHrKD1a-69" value="" style="group" vertex="1" connectable="0" parent="1">
          <mxGeometry x="470" y="865.5" width="125" height="89.5" as="geometry" />
        </mxCell>
        <mxCell id="z7mrPWAKrII33vHrKD1a-67" value="" style="html=1;verticalLabelPosition=bottom;align=center;labelBackgroundColor=#ffffff;verticalAlign=top;strokeWidth=2;strokeColor=#0080F0;shadow=0;dashed=0;shape=mxgraph.ios7.icons.message;" vertex="1" parent="z7mrPWAKrII33vHrKD1a-69">
          <mxGeometry width="125" height="89.5" as="geometry" />
        </mxCell>
        <mxCell id="z7mrPWAKrII33vHrKD1a-68" value="Add sku which is system generated," style="text;html=1;align=center;verticalAlign=middle;whiteSpace=wrap;rounded=0;" vertex="1" parent="z7mrPWAKrII33vHrKD1a-69">
          <mxGeometry x="32.5" y="20" width="60" height="30" as="geometry" />
        </mxCell>
        <mxCell id="z7mrPWAKrII33vHrKD1a-74" value="" style="endArrow=classic;html=1;rounded=0;entryX=0.53;entryY=1.08;entryDx=0;entryDy=0;entryPerimeter=0;" edge="1" parent="1">
          <mxGeometry width="50" height="50" relative="1" as="geometry">
            <mxPoint x="310" y="400" as="sourcePoint" />
            <mxPoint x="153" y="168" as="targetPoint" />
            <Array as="points">
              <mxPoint x="150" y="400" />
            </Array>
          </mxGeometry>
        </mxCell>
        <mxCell id="z7mrPWAKrII33vHrKD1a-75" value="409 feedback" style="edgeLabel;html=1;align=center;verticalAlign=middle;resizable=0;points=[];" vertex="1" connectable="0" parent="z7mrPWAKrII33vHrKD1a-74">
          <mxGeometry x="0.0222" y="3" relative="1" as="geometry">
            <mxPoint x="22" y="20" as="offset" />
          </mxGeometry>
        </mxCell>
        <mxCell id="z7mrPWAKrII33vHrKD1a-77" value="2.1" style="swimlane;html=1;startSize=20;fontStyle=0;collapsible=0;horizontal=1;swimlaneLine=1;strokeWidth=2;swimlaneFillColor=#ffffff;whiteSpace=wrap;" vertex="1" parent="1">
          <mxGeometry x="110" y="730" width="220" height="100" as="geometry" />
        </mxCell>
        <mxCell id="z7mrPWAKrII33vHrKD1a-83" value="check product name in db" style="text;html=1;align=center;verticalAlign=middle;whiteSpace=wrap;rounded=0;" vertex="1" parent="z7mrPWAKrII33vHrKD1a-77">
          <mxGeometry x="60" y="40" width="60" height="30" as="geometry" />
        </mxCell>
        <mxCell id="z7mrPWAKrII33vHrKD1a-84" value="" style="endArrow=classic;html=1;rounded=0;" edge="1" parent="z7mrPWAKrII33vHrKD1a-77">
          <mxGeometry width="50" height="50" relative="1" as="geometry">
            <mxPoint x="80" y="100" as="sourcePoint" />
            <mxPoint x="80" y="220" as="targetPoint" />
          </mxGeometry>
        </mxCell>
        <mxCell id="z7mrPWAKrII33vHrKD1a-85" value="error" style="edgeLabel;html=1;align=center;verticalAlign=middle;resizable=0;points=[];" vertex="1" connectable="0" parent="z7mrPWAKrII33vHrKD1a-84">
          <mxGeometry x="0.1667" y="5" relative="1" as="geometry">
            <mxPoint as="offset" />
          </mxGeometry>
        </mxCell>
        <mxCell id="z7mrPWAKrII33vHrKD1a-78" value="2.2" style="swimlane;html=1;startSize=20;fontStyle=0;collapsible=0;horizontal=1;swimlaneLine=1;strokeWidth=2;swimlaneFillColor=#ffffff;whiteSpace=wrap;" vertex="1" parent="1">
          <mxGeometry x="425" y="730" width="220" height="100" as="geometry" />
        </mxCell>
        <mxCell id="z7mrPWAKrII33vHrKD1a-81" value="" style="endArrow=classic;html=1;rounded=0;" edge="1" parent="z7mrPWAKrII33vHrKD1a-78">
          <mxGeometry width="50" height="50" relative="1" as="geometry">
            <mxPoint x="-95" y="49.5" as="sourcePoint" />
            <mxPoint x="5" y="50" as="targetPoint" />
          </mxGeometry>
        </mxCell>
        <mxCell id="z7mrPWAKrII33vHrKD1a-89" value="sanitized&amp;nbsp;&lt;div&gt;product details&lt;/div&gt;" style="edgeLabel;html=1;align=center;verticalAlign=middle;resizable=0;points=[];" vertex="1" connectable="0" parent="z7mrPWAKrII33vHrKD1a-81">
          <mxGeometry x="-0.06" relative="1" as="geometry">
            <mxPoint as="offset" />
          </mxGeometry>
        </mxCell>
        <mxCell id="z7mrPWAKrII33vHrKD1a-90" value="Add image and sku" style="text;html=1;align=center;verticalAlign=middle;whiteSpace=wrap;rounded=0;" vertex="1" parent="z7mrPWAKrII33vHrKD1a-78">
          <mxGeometry x="80" y="35" width="60" height="30" as="geometry" />
        </mxCell>
        <mxCell id="z7mrPWAKrII33vHrKD1a-79" value="product details" style="html=1;dashed=0;whiteSpace=wrap;shape=mxgraph.dfd.dataStoreID;align=left;spacingLeft=3;points=[[0,0],[0.5,0],[1,0],[0,0.5],[1,0.5],[0,1],[0.5,1],[1,1]];" vertex="1" parent="1">
          <mxGeometry x="730" y="740" width="100" height="80" as="geometry" />
        </mxCell>
        <mxCell id="z7mrPWAKrII33vHrKD1a-80" value="" style="endArrow=classic;html=1;rounded=0;" edge="1" parent="1">
          <mxGeometry width="50" height="50" relative="1" as="geometry">
            <mxPoint x="-30" y="779.5" as="sourcePoint" />
            <mxPoint x="110" y="779.5" as="targetPoint" />
          </mxGeometry>
        </mxCell>
        <mxCell id="z7mrPWAKrII33vHrKD1a-88" value="sanitized product details" style="edgeLabel;html=1;align=center;verticalAlign=middle;resizable=0;points=[];" vertex="1" connectable="0" parent="z7mrPWAKrII33vHrKD1a-80">
          <mxGeometry x="-0.7143" y="1" relative="1" as="geometry">
            <mxPoint y="1" as="offset" />
          </mxGeometry>
        </mxCell>
        <mxCell id="z7mrPWAKrII33vHrKD1a-82" value="" style="endArrow=classic;html=1;rounded=0;entryX=-0.03;entryY=0.75;entryDx=0;entryDy=0;entryPerimeter=0;" edge="1" parent="1" target="z7mrPWAKrII33vHrKD1a-79">
          <mxGeometry width="50" height="50" relative="1" as="geometry">
            <mxPoint x="645" y="800" as="sourcePoint" />
            <mxPoint x="690" y="800" as="targetPoint" />
          </mxGeometry>
        </mxCell>
        <mxCell id="z7mrPWAKrII33vHrKD1a-91" value="product details&lt;div&gt;table&lt;/div&gt;" style="edgeLabel;html=1;align=center;verticalAlign=middle;resizable=0;points=[];" vertex="1" connectable="0" parent="z7mrPWAKrII33vHrKD1a-82">
          <mxGeometry x="-0.2683" y="-4" relative="1" as="geometry">
            <mxPoint x="15" y="-19" as="offset" />
          </mxGeometry>
        </mxCell>
        <mxCell id="z7mrPWAKrII33vHrKD1a-86" value="" style="group" vertex="1" connectable="0" parent="1">
          <mxGeometry x="60" y="630" width="155" height="89.5" as="geometry" />
        </mxCell>
        <mxCell id="z7mrPWAKrII33vHrKD1a-70" value="" style="html=1;verticalLabelPosition=bottom;align=center;labelBackgroundColor=#ffffff;verticalAlign=top;strokeWidth=2;strokeColor=#0080F0;shadow=0;dashed=0;shape=mxgraph.ios7.icons.message;" vertex="1" parent="z7mrPWAKrII33vHrKD1a-86">
          <mxGeometry width="155" height="89.5" as="geometry" />
        </mxCell>
        <mxCell id="z7mrPWAKrII33vHrKD1a-71" value="check if product name exists in the db and return&amp;nbsp; 304 if it does" style="text;html=1;align=center;verticalAlign=middle;whiteSpace=wrap;rounded=0;" vertex="1" parent="z7mrPWAKrII33vHrKD1a-86">
          <mxGeometry x="25" y="19.5" width="105" height="30" as="geometry" />
        </mxCell>
        <mxCell id="z7mrPWAKrII33vHrKD1a-92" value="2.2.2" style="swimlane;html=1;startSize=20;fontStyle=0;collapsible=0;horizontal=1;swimlaneLine=1;strokeWidth=2;swimlaneFillColor=#ffffff;whiteSpace=wrap;" vertex="1" parent="1">
          <mxGeometry x="490" y="960" width="220" height="100" as="geometry" />
        </mxCell>
        <mxCell id="z7mrPWAKrII33vHrKD1a-96" value="" style="endArrow=classic;html=1;rounded=0;" edge="1" parent="z7mrPWAKrII33vHrKD1a-92">
          <mxGeometry width="50" height="50" relative="1" as="geometry">
            <mxPoint x="-55" y="49.569999999999936" as="sourcePoint" />
            <mxPoint y="50" as="targetPoint" />
          </mxGeometry>
        </mxCell>
        <mxCell id="z7mrPWAKrII33vHrKD1a-100" value="add sku" style="text;html=1;align=center;verticalAlign=middle;whiteSpace=wrap;rounded=0;" vertex="1" parent="z7mrPWAKrII33vHrKD1a-92">
          <mxGeometry x="75" y="35" width="60" height="30" as="geometry" />
        </mxCell>
        <mxCell id="z7mrPWAKrII33vHrKD1a-93" value="2.2.1" style="swimlane;html=1;startSize=20;fontStyle=0;collapsible=0;horizontal=1;swimlaneLine=1;strokeWidth=2;swimlaneFillColor=#ffffff;whiteSpace=wrap;" vertex="1" parent="1">
          <mxGeometry x="215" y="955" width="220" height="100" as="geometry" />
        </mxCell>
        <mxCell id="z7mrPWAKrII33vHrKD1a-99" value="upload image to cloudinary" style="text;html=1;align=center;verticalAlign=middle;whiteSpace=wrap;rounded=0;" vertex="1" parent="z7mrPWAKrII33vHrKD1a-93">
          <mxGeometry x="80" y="40" width="60" height="30" as="geometry" />
        </mxCell>
        <mxCell id="z7mrPWAKrII33vHrKD1a-94" value="product details" style="html=1;dashed=0;whiteSpace=wrap;shape=mxgraph.dfd.dataStoreID;align=left;spacingLeft=3;points=[[0,0],[0.5,0],[1,0],[0,0.5],[1,0.5],[0,1],[0.5,1],[1,1]];" vertex="1" parent="1">
          <mxGeometry x="750" y="890" width="100" height="50" as="geometry" />
        </mxCell>
        <mxCell id="z7mrPWAKrII33vHrKD1a-95" value="" style="endArrow=classic;html=1;rounded=0;" edge="1" parent="1">
          <mxGeometry width="50" height="50" relative="1" as="geometry">
            <mxPoint x="320" y="885" as="sourcePoint" />
            <mxPoint x="320" y="955" as="targetPoint" />
          </mxGeometry>
        </mxCell>
        <mxCell id="z7mrPWAKrII33vHrKD1a-98" value="sanitized product details" style="edgeLabel;html=1;align=center;verticalAlign=middle;resizable=0;points=[];" vertex="1" connectable="0" parent="z7mrPWAKrII33vHrKD1a-95">
          <mxGeometry x="-0.5317" relative="1" as="geometry">
            <mxPoint as="offset" />
          </mxGeometry>
        </mxCell>
        <mxCell id="z7mrPWAKrII33vHrKD1a-97" value="" style="endArrow=classic;html=1;rounded=0;entryX=0.382;entryY=0.923;entryDx=0;entryDy=0;entryPerimeter=0;" edge="1" parent="1" target="z7mrPWAKrII33vHrKD1a-94">
          <mxGeometry width="50" height="50" relative="1" as="geometry">
            <mxPoint x="710" y="1009.5699999999999" as="sourcePoint" />
            <mxPoint x="850" y="1009.5699999999999" as="targetPoint" />
            <Array as="points">
              <mxPoint x="788" y="1010" />
            </Array>
          </mxGeometry>
        </mxCell>
        <mxCell id="z7mrPWAKrII33vHrKD1a-102" value="product details&lt;div&gt;table&lt;/div&gt;" style="edgeLabel;html=1;align=center;verticalAlign=middle;resizable=0;points=[];" vertex="1" connectable="0" parent="z7mrPWAKrII33vHrKD1a-97">
          <mxGeometry x="-0.4509" y="1" relative="1" as="geometry">
            <mxPoint as="offset" />
          </mxGeometry>
        </mxCell>
      </root>
    </mxGraphModel>
  </diagram>
</mxfile>
